<?xml version="1.0" standalone="no"?><!DOCTYPE svg PUBLIC "-//W3C//DTD SVG 1.1//EN" "http://www.w3.org/Graphics/SVG/1.1/DTD/svg11.dtd">
<svg t="1714353323714" class="icon" viewBox="0 0 1024 1024" version="1.1" xmlns="http://www.w3.org/2000/svg" p-id="1693"
     width="200" height="200"><path d="M217.088 466.944L563.2 813.056l71.68-71.68c-30.72-30.72-30.72-81.92-2.048-114.688L884.736 348.16v-2.048L684.032 145.408h-2.048L403.456 397.312c-32.768 28.672-81.92 28.672-114.688-2.048l-71.68 71.68z m446.464 303.104l-71.68 71.68c-16.384 16.384-43.008 16.384-57.344 0L188.416 495.616c-16.384-16.384-16.384-40.96 0-57.344l71.68-71.68c16.384-16.384 40.96-16.384 57.344-2.048 18.432 16.384 43.008 16.384 59.392 2.048L655.36 114.688c16.384-14.336 43.008-14.336 59.392 2.048L915.456 317.44c16.384 16.384 16.384 43.008 2.048 59.392L665.6 655.36c-14.336 16.384-14.336 40.96 0 57.344 12.288 18.432 12.288 43.008-2.048 57.344z m-364.544-81.92c8.192-8.192 20.48-8.192 28.672 0s8.192 20.48 0 28.672L133.12 911.36c-8.192 8.192-20.48 8.192-28.672 0s-8.192-20.48 0-28.672l194.56-194.56z" p-id="1694" fill="#515151"></path></svg>