<svg t="1730386202497" class="icon" viewBox="0 0 1024 1024" version="1.1" xmlns="http://www.w3.org/2000/svg" p-id="48414" width="200" height="200"><path d="M820.992 160c0.544 0 0.992 0.448 0.992 0.992v692a0.992 0.992 0 0 1-0.992 1.024h-94.016a0.992 0.992 0 0 1-0.96-1.024V160.992c0-0.544 0.416-0.96 0.96-0.96h94.016z m-524.48 4.416l0.256 0.256 330.56 330.688a16 16 0 0 1 3.264 17.856 15.968 15.968 0 0 1-3.584 5.44L296.48 849.28a16 16 0 0 1-22.624 0l-45.184-45.216a16 16 0 0 1 0-22.624l274.528-274.624-274.24-274.336a16 16 0 0 1 0-22.624l45.184-45.184a16 16 0 0 1 22.368-0.288z" fill="#707070"   p-id="48415"></path></svg>