<svg t="1730366232368" class="icon" viewBox="0 0 1024 1024" version="1.1" xmlns="http://www.w3.org/2000/svg" p-id="11812" width="200" height="200"><path d="M229 165a1 1 0 0 0-1 1v692a1 1 0 0 0 1 1h94a1 1 0 0 0 1-1V166a1 1 0 0 0-1-1h-94z m524.487 4.425l-0.263 0.256c-0.001 0.002-0.003 0.004 0 0.01L422.692 500.35c-4.821 4.83-5.918 11.97-3.292 17.852a15.968 15.968 0 0 0 3.573 5.448l330.53 330.657c6.243 6.253 16.373 6.255 22.623 0.008v-0.008l45.182-45.2c6.242-6.252 6.242-16.38 0-22.632l-274.51-274.617 274.23-274.333c6.24-6.253 6.24-16.38 0-22.632l-45.18-45.202c-6.156-6.167-16.093-6.255-22.36-0.266z" fill="#707070"   p-id="11813"></path></svg>